# xmcd CD database file
#
# Track frame offsets:
#	182
#	15622
#	31830
#	46537
#	58412
#	72690
#	87750
#	102422
#	116877
#	130960
#	143797
#	159335
#	175077
#	187945
#	200217
#	213845
#	228155
#	242442
#	255962
#	269117
#	282102
#	296282
#
# Disc length: 4113 seconds
#
# Revision: 0
# Processed by: cddbd v1.5.2PL0 Copyright (c) Steve Scherf et al.
# Submitted via: CDex 1.51
#
DISCID=3b100f16
DTITLE=Henry "Red" Allen - The Swing Era
DYEAR=1929
DGENRE=Jazz
TTITLE0=Biff'ly Blues
TTITLE1=Feeling Drowsy
TTITLE2=The New Call Of The Freaks
TTITLE3=Blood Hound Blues
TTITLE4=Louisiana Swing
TTITLE5=Patrol Wagon Blues
TTITLE6=Panama
TTITLE7=Stingaree Blues
TTITLE8=You Rascal You
TTITLE9=Shakin' The African
TTITLE10=Nagasaki
TTITLE11=Heartbreak Blues
TTITLE12=Happy Feet
TTITLE13=Rug Cutter Swing
TTITLE14=Swingin' In E Flat
TTITLE15=Rosetta
TTITLE16=Body and Soul
TTITLE17=You
TTITLE18=Algiers Stomp
TTITLE19=Blue Deep Sea Blues
TTITLE20=Canal Street Blues
TTITLE21=Coal Black Shine
EXTD=YEAR: 1929
EXTT0=
EXTT1=
EXTT2=
EXTT3=
EXTT4=
EXTT5=
EXTT6=
EXTT7=
EXTT8=
EXTT9=
EXTT10=
EXTT11=
EXTT12=
EXTT13=
EXTT14=
EXTT15=
EXTT16=
EXTT17=
EXTT18=
EXTT19=
EXTT20=
EXTT21=
PLAYORDER=
